<svg xmlns="http://www.w3.org/2000/svg" viewBox="0 0 19 20"><defs><style>.cls-1{fill:#555d66;fill-rule:evenodd;}</style></defs><title>settings</title><g id="Layer_2" data-name="Layer 2"><g id="Layer_1-2" data-name="Layer 1"><path class="cls-1" d="M9.5,14a4,4,0,1,1,3.93-4A4,4,0,0,1,9.5,14Zm7.87-4a8.05,8.05,0,0,0-.17-1.66L19,6.73,17,3.27l-2.28.79A7.81,7.81,0,0,0,11.94,2.4L11.47,0H7.53L7.06,2.4A7.81,7.81,0,0,0,4.25,4.05L2,3.27,0,6.73,1.8,8.34a8.1,8.1,0,0,0,0,3.31L0,13.27l2,3.46,2.28-.79A7.81,7.81,0,0,0,7.06,17.6L7.53,20h3.93l.47-2.4a7.83,7.83,0,0,0,2.81-1.66l2.28.79,2-3.46-1.8-1.61A8.15,8.15,0,0,0,17.37,10Z"/></g></g></svg>