<svg xmlns="http://www.w3.org/2000/svg" viewBox="0 0 16.25 16.3"><defs><style>.cls-1{fill:#aeb4bb;}</style></defs><title>edit</title><g id="Layer_2" data-name="Layer 2"><g id="Layer_1-2" data-name="Layer 1"><path class="cls-1" d="M15.75,2.27,14,.5a1.75,1.75,0,0,0-2.44,0L1.38,10.68a.4.4,0,0,0-.08.13L0,15.54a.64.64,0,0,0,.16.57.62.62,0,0,0,.43.19.33.33,0,0,0,.18,0L5.45,15a.34.34,0,0,0,.14-.09L15.75,4.72a1.75,1.75,0,0,0,0-2.44ZM4.27,14.15l-1.93.55-.8-.8.52-2Zm9.35-9-8.4,8.4L2.7,11l8.4-8.4ZM14.9,3.87l-.46.46L11.92,1.81l.46-.46a.54.54,0,0,1,.74,0L14.9,3.12A.54.54,0,0,1,14.9,3.87Z"/></g></g></svg>