<svg xmlns="http://www.w3.org/2000/svg" viewBox="0 0 75.1 97.5"><defs><style>.cls-1,.cls-2{fill:none}.cls-1{clip-rule:evenodd}.cls-4{isolation:isolate}.cls-7{fill:#231f1f}</style><clipPath id="clip-path"><path class="cls-1" d="M66.65 22.84A32.91 32.91 0 0 0 39.52 5h-1.95a32.57 32.57 0 0 0-27.34 50.27l25 36a2.83 2.83 0 0 0 4.65 0l25.04-36.12a32.75 32.75 0 0 0 1.72-32.31m-9.1 26.64l-.14.24v.07L37.57 78.35 18 50.18a23.3 23.3 0 0 1 19.56-35.9H39a23.26 23.26 0 0 1 18.57 35.2"/></clipPath><clipPath id="clip-path-2"><path class="cls-2" d="M0 0h76v98H0z"/></clipPath><clipPath id="clip-path-3"><path class="cls-2" d="M5 5h66v88H5z"/></clipPath><clipPath id="clip-path-4"><path class="cls-1" d="M37.58 26.75A10.48 10.48 0 1 0 45 29.82a10.48 10.48 0 0 0-7.4-3.07"/></clipPath><clipPath id="clip-path-5"><path class="cls-2" d="M22 21h32v32H22z"/></clipPath><clipPath id="clip-path-6"><path class="cls-2" d="M27 26h22v22H27z"/></clipPath></defs><g id="Layer_2" data-name="Layer 2"><g id="Layer_1-2" data-name="Layer 1"><g clip-path="url(#clip-path)"><g clip-path="url(#clip-path-2)"><g clip-path="url(#clip-path-3)"><path class="cls-7" d="M0 0h75.1v97.5H0z"/></g></g></g><g clip-path="url(#clip-path-4)"><g clip-path="url(#clip-path-5)"><g clip-path="url(#clip-path-6)"><path class="cls-7" d="M22.09 21.75h30.96v30.96H22.09z"/></g></g></g></g></g></svg>